<?xml version="1.0" encoding="utf-8"?>
<!-- Generator: Adobe Illustrator 19.0.0, SVG Export Plug-In . SVG Version: 6.00 Build 0)  -->
<svg version="1.1" baseProfile="tiny" id="图层_2"
	 xmlns="http://www.w3.org/2000/svg" xmlns:xlink="http://www.w3.org/1999/xlink" width="100%" height="100%" x="0px" y="0px" viewBox="0 0 64 64"
	 xml:space="preserve">
<g id="XMLID_3_">
	<path id="XMLID_5_" fill="#B21300" d="M31.8,24.7c0.1,0,0.1,0,0.2,0c0,0,0,0.1,0.1,0.1c0,0.1,0.1,0.1,0.1,0.2
		c0.1,0.2,0.2,0.5,0.3,0.8c0.1,0.3,0.2,0.6,0.4,1c0.1,0.2,0.2,0.4,0.3,0.6l0.1,0.1c0.3,0.5,0.6,1.1,0.9,1.7c0.4,0.8,0.7,1.6,1,2.3
		c0,0.1,0.1,0.2,0.1,0.4c0.1,0.2,0.2,0.4,0.3,0.6c0.1,0.1,0.1,0.2,0.2,0.4c0.1,0.2,0.1,0.3,0.1,0.4c0.1,0.3,0.2,0.5,0.2,0.8
		c0,0.1-0.1,0.3-0.1,0.4c0,0.1,0,0.2-0.1,0.2c0,0.1-0.1,0.1-0.1,0.2c-0.6,0.7-1.7,1.2-2.7,1.2c-0.1,0-0.2,0-0.3,0
		c-0.2,0-0.3,0-0.4,0c-0.1,0-0.2,0-0.4-0.1c-0.1,0-0.2,0-0.3,0c-0.3,0-0.5,0-0.8-0.1c-0.2-0.1-0.5-0.1-0.7-0.2
		c-0.1,0-0.2-0.1-0.2-0.1c-2-1.3-3.3-3.9-3.1-6c0-0.3,0.1-0.6,0.1-0.8c0-0.1,0-0.1,0.1-0.2c0.1-0.3,0.3-0.6,0.4-0.8
		c0.2-0.3,0.3-0.5,0.5-0.7l0.1-0.1c0,0,0-0.1,0-0.1c0.8-0.7,1.6-1.3,2.3-1.6c0.1,0,0.2,0,0.2-0.1c0.1,0,0.3-0.1,0.5-0.1
		c0.2-0.1,0.3-0.1,0.4-0.2c0.1-0.1,0.2-0.1,0.3-0.1C31.6,24.8,31.7,24.7,31.8,24.7 M31.8,22.7c-0.3,0-0.5,0-0.6,0.1
		c-0.4,0.1-0.6,0.2-0.8,0.3c-0.1,0-0.1,0.1-0.2,0.1c0,0,0,0-0.1,0c-0.1,0-0.3,0.1-0.6,0.1c-1,0.4-2.1,1.1-3,2
		c-0.1,0.1-0.2,0.2-0.3,0.3c-0.3,0.3-0.5,0.6-0.7,1c-0.2,0.3-0.4,0.7-0.5,1.1c-0.1,0.1-0.1,0.3-0.1,0.4c-0.1,0.4-0.2,0.8-0.2,1.2
		c-0.2,2.9,1.5,6.1,4,7.8c0.2,0.1,0.4,0.2,0.6,0.3c0.3,0.1,0.7,0.2,1,0.3C30.6,38,31,38,31.4,38c0,0,0,0,0.1,0
		c0.2,0,0.4,0.1,0.5,0.1c0.2,0,0.4,0,0.6,0c0.1,0,0.3,0,0.4,0c1.6,0,3.3-0.8,4.2-1.9c0.1-0.1,0.2-0.2,0.2-0.3
		c0.1-0.2,0.2-0.4,0.3-0.7c0,0,0-0.1,0-0.2c0-0.1,0-0.2,0.1-0.3c0.1-0.3,0.1-0.7,0.1-1c-0.1-0.4-0.2-0.7-0.3-1.1
		c0-0.1-0.1-0.3-0.2-0.5c-0.1-0.2-0.2-0.4-0.3-0.5c-0.1-0.2-0.1-0.2-0.2-0.3c0-0.1-0.1-0.2-0.1-0.2c0,0,0-0.1,0-0.1
		c-0.3-0.8-0.7-1.7-1.1-2.5c-0.3-0.6-0.6-1.2-0.9-1.8c0,0,0,0,0-0.1l-0.1-0.1c-0.1-0.1-0.2-0.2-0.2-0.3c-0.1-0.3-0.2-0.6-0.4-0.9
		c-0.1-0.3-0.2-0.6-0.3-0.8c-0.1-0.1-0.1-0.3-0.2-0.4L32,24.9l1.8-0.9l0-0.1c-0.2-0.4-0.5-0.7-0.9-0.9
		C32.5,22.8,32.1,22.7,31.8,22.7L31.8,22.7z"/>
	<g id="XMLID_83_">
		<path id="XMLID_79_" fill="#FF0000" d="M30.7,57.5c-0.9,0-1.8-0.1-2.7-0.2c-0.6-0.1-1.3-0.2-1.9-0.4c-7.5-1.7-13.7-6.8-16.5-13.7
			c-0.2-0.5-0.5-1.1-0.7-1.6C6.7,36.5,6.2,30.6,7.4,25c0.1-0.6,0.2-1.2,0.4-1.8C8,22,8.4,20.9,8.8,19.8c0-0.1,0.1-0.2,0.1-0.3
			c0.3-0.5,0.5-1.1,0.9-1.6c0.3-0.6,0.7-1.1,1.2-1.7c1.1-1.4,2.5-2.7,3.9-3.8l0.3-0.2c0,0,0.1-0.1,0.1-0.1c0.5-0.2,0.8-0.5,1.2-0.7
			c1-0.7,2.2-1.4,3.8-1.5c0,0,0.2,0,0.4,0c0.1,0,0.2,0,0.3,0c0.8,0,1.5,0.2,2.1,0.5c1.3,0.8,2,2.4,1.5,3.9c-0.1,0.2-0.1,0.4-0.2,0.6
			L24.2,15c-0.1,0.2-0.3,0.4-0.5,0.6l-0.2,0.1c-2.1,0.9-3.8,2.2-4.9,3.8c-0.2,0.3-0.4,0.5-0.5,0.6c-0.2,0.2-0.7,1.1-0.9,1.2
			c-0.1,0.2-0.2,0.4-0.3,0.6c0,0,0,0.1-0.1,0.1c-0.2,0.3-0.4,0.6-0.5,1c-0.1,0.3-0.1,0.5-0.2,0.6c-0.2,0.8-0.3,1.4-0.4,1.8
			c-0.1,0.3-0.1,0.5-0.2,0.7c-1.4,6.7,1,12.8,1.1,12.8c0.2,0.4,0.4,0.8,0.5,1.2l0.2,0.4c2.3,4.8,6.2,8.1,10.7,9
			c0.5,0.1,1.1,0.2,1.6,0.3c0.5,0.1,1,0.1,1.5,0.1c1,0,2.1-0.1,3.1-0.4c0.1,0,0.3-0.1,0.4-0.1c0.5-0.1,1.1-0.2,1.6-0.2
			c2.7-0.5,5.2-1.5,7.2-3c4.2-3.1,7.7-9.3,6.4-14.5c-0.3-1-0.9-2.6-2.7-4.6c-0.7-0.8-1.6-1.8-3-2.6c-0.2-0.1-0.5-0.3-0.7-0.4
			c-0.3-0.1-0.5-0.2-0.7-0.2c-0.4-0.1-0.7-0.2-0.7-0.2c-0.1,0-0.5-0.1-1.1-0.1c-0.6,0-1.3,0.1-1.7,0.1c-0.4,0-0.5,0.1-0.6,0.1
			l-0.2,0.1c-0.2,0.1-0.5,0.1-0.7,0.1c0,0.1,0.1,0.1,0.1,0.2c0.1,0.3,0.2,0.5,0.2,0.5c0,0.1,0.3,0.6,0.3,0.6
			c0.1,0.3,0.2,0.4,0.2,0.5c0.1,0.2,0.1,0.2,0.4,0.7l0.2,0.5l0.1,0.1c0.2,0.5,0.5,1.1,0.8,1.6c0.1,0.3,0.3,0.6,0.4,1
			c2,3.7,1.3,7.1-2,10c0,0-0.1,0.1-0.1,0.1c-0.2,0.1-0.5,0.3-0.7,0.4c-0.5,0.3-1,0.5-1.5,0.6c-0.1,0-0.3,0.1-0.4,0.1
			c-0.9,0.3-1.8,0.5-2.8,0.5c-0.9,0-1.9-0.1-2.8-0.4c-0.1,0-0.3-0.1-0.5-0.1c-1-0.3-2-0.7-2.8-1.3c-0.1-0.1-0.3-0.2-0.4-0.3
			c-0.9-0.6-1.8-1.4-2.5-2.3c-0.2-0.2-0.3-0.3-0.4-0.5c-0.5-0.6-1-1.3-1.4-2c-0.1-0.1-0.2-0.3-0.3-0.5c-0.7-1.5-1-3.2-0.9-5
			c0.1-0.6,0.2-1.2,0.3-1.8c0.1-0.4,0.2-0.7,0.4-1.1c0.1-0.3,0.3-0.7,0.5-1c0-0.1,0.1-0.2,0.1-0.2c0.8-1.3,2.1-3.1,4.2-4.1
			c0.1-0.1,0.2-0.1,0.4-0.1c0.3-0.1,0.5-0.2,0.8-0.3c0.1-0.1,0.3-0.1,0.3-0.1c0.3-0.1,0.8-0.3,1.2-0.5c-0.3-0.7-0.9-2.1-1.4-3.2
			c-0.1-0.3-0.5-1-0.8-2c-0.2-0.5-0.4-1.2-0.5-2c-0.1-0.9-0.1-1.6,0.1-2.4c0.2-0.8,0.6-1.6,1.2-2.3c1.5-1.7,3.9-2.8,6.5-2.8
			c0.9,0,1.7,0.1,2.4,0.4c0.3,0.1,0.6,0.2,0.9,0.4c0,0,0.1,0,0.1,0.1c1.9,1.3,2.6,3.4,1.7,5.4c-0.1,0.2-0.2,0.4-0.3,0.5
			c-0.6,0.9-1.4,1.3-2.4,1.3c-0.9,0-1.8-0.4-2.4-0.7l-0.2-0.1c0,0,0,0,0,0c-0.1,0-0.2,0-0.3,0.1c0,0-0.1,0-0.1,0.1c0,0,0,0.1,0,0.1
			c0.1,0.3,0.1,0.5,0.2,0.8c0.1,0.6,0.3,1,0.4,1.4c0.1,0.4,0.3,0.9,0.6,1.4c0,0,0,0.1,0.1,0.1c0.1,0.5,0.3,1,0.6,1.5
			c0.7-0.2,1.3-0.4,1.9-0.5l0.7-0.1c0.2,0,0.8-0.1,1.6-0.2c0.5-0.1,1-0.1,1.7-0.2c0,0,0.1,0,0.1,0c0,0,1.5,0.1,1.5,0.1l1.3,0.2
			c0.3,0.1,0.7,0.2,1.1,0.3c0.1,0,0.2,0,0.3,0.1c0.2,0.1,0.3,0.1,0.5,0.2c3,1.1,5.4,2.8,7.3,5c7.1,8.4,2.3,20.1,2.1,20.6
			C51,53.3,40.7,56.1,37.7,56.8c-0.6,0.1-1.4,0.2-2.1,0.3c-0.5,0.1-1,0.1-1.6,0.2C32.9,57.4,31.8,57.5,30.7,57.5z M28.5,27.6
			c0,0-0.1,0.1-0.1,0.1c-0.1,0.1-0.2,0.2-0.3,0.4c-0.1,0.2-0.2,0.4-0.3,0.7c-0.1,0.3-0.1,0.5-0.1,0.7c-0.1,1.8,1.1,4,2.7,5.1
			c0.2,0.1,0.4,0.2,0.6,0.2c0.2,0,0.4,0.1,0.6,0.1c0.2,0,0.3,0,0.5,0.1c0.1,0,0.2,0,0.3,0c0.1,0,0.3,0,0.4,0c0.1,0,0.2,0,0.2,0
			c0.3-0.1,1.5-0.8,1.9-1.1c0-0.1,0-0.1,0-0.2c0-0.1,0-0.1,0-0.2c0,0,0,0,0,0c0-0.1-0.1-0.2-0.1-0.3c-0.1-0.1-0.1-0.2-0.2-0.3
			c-0.1-0.2-0.2-0.4-0.3-0.7c-0.1-0.2-0.1-0.3-0.1-0.4c-0.3-0.7-0.6-1.5-0.9-2.2c-0.3-0.6-0.6-1.1-0.8-1.6l0-0.1
			c-0.1-0.2-0.3-0.5-0.4-0.8c-0.1-0.3-0.3-0.7-0.4-1c0-0.1-0.1-0.2-0.1-0.3c0,0-0.1,0-0.1,0c-0.1,0-0.2,0.1-0.3,0.1
			c-0.1,0-0.2,0.1-0.3,0.1c-0.2,0.1-0.6,0.4-2.1,1.4C28.6,27.5,28.5,27.6,28.5,27.6z"/>
		<path id="XMLID_19_" fill="#B21300" d="M33.9,6.2c0.7,0,1.4,0.1,2.1,0.3c0.3,0.1,0.5,0.2,0.8,0.3c1.5,1,2.1,2.6,1.4,4.1
			c-0.1,0.1-0.1,0.3-0.2,0.4c-0.4,0.6-1,0.9-1.6,0.9c-0.7,0-1.4-0.3-2-0.6l-0.3-0.1c0,0-0.1,0-0.2,0c-0.1,0-0.1,0-0.2,0
			c-0.2,0-0.4,0.1-0.7,0.2c-0.1,0-0.1,0.1-0.2,0.1c-0.5,0.2-0.6,0.4-0.5,0.9c0,0.1,0,0.2,0.1,0.3c0,0.2,0.1,0.5,0.2,0.7
			c0.1,0.6,0.3,1.1,0.5,1.5c0.1,0.4,0.3,0.9,0.6,1.5c0.2,0.9,0.5,1.6,1,2.2c0,0.1,0.1,0.1,0.1,0.2c0.2-0.1,0.5-0.2,0.7-0.2
			c0.6-0.2,1.3-0.3,1.8-0.5c0.2,0,0.5-0.1,0.7-0.1c0.2,0,0.8-0.1,1.6-0.2c0.5-0.1,1-0.1,1.7-0.2c0.5,0,0.9,0.1,1.4,0.1
			c0.4,0.1,0.8,0.1,1.2,0.2c0.2,0.1,0.6,0.2,1,0.2c0.1,0,0.1,0,0.2,0.1c0.2,0.1,0.3,0.1,0.5,0.2c2.8,1,5.1,2.6,6.9,4.7
			c6.7,7.9,2.1,19.1,1.9,19.6c-4.1,9.6-13.9,12.3-16.8,12.9c-0.6,0.1-1.3,0.2-2,0.3c-0.5,0.1-1,0.1-1.6,0.1c0,0-0.1,0-0.1,0
			c-1,0.2-2,0.3-3,0.3c-0.9,0-1.7-0.1-2.6-0.2c-0.6-0.1-1.2-0.2-1.8-0.4c-7.2-1.6-13.1-6.5-15.9-13.1c-0.3-0.5-0.5-1.1-0.7-1.6
			c-2-5-2.5-10.7-1.3-16.1c0.1-0.6,0.2-1.2,0.4-1.7c0.3-1.1,0.6-2.2,1-3.3c0-0.1,0.1-0.1,0.1-0.2c0.2-0.5,0.5-1,0.8-1.5
			c0.3-0.5,0.7-1.1,1.1-1.6c1-1.3,2.3-2.6,3.7-3.6l0.3-0.2c0.5-0.3,0.9-0.5,1.3-0.8c1-0.6,2-1.3,3.3-1.4c0.1,0,0.2,0,0.4,0
			c0.1,0,0.2,0,0.2,0c0.6,0,1.1,0.1,1.5,0.4c0.9,0.6,1.4,1.7,1.1,2.7c-0.1,0.2-0.1,0.3-0.2,0.5l-0.1,0.2l-0.2,0.1
			c-2.3,1-4.1,2.4-5.3,4.1c-0.2,0.3-0.4,0.5-0.5,0.6c-0.2,0.2-0.8,1.1-0.9,1.3c-0.1,0.2-0.2,0.4-0.4,0.7c-0.3,0.4-0.5,0.8-0.6,1.2
			c-0.1,0.3-0.2,0.6-0.2,0.7c-0.2,0.8-0.3,1.3-0.4,1.8c-0.1,0.3-0.1,0.5-0.2,0.7c-1.5,7,1.1,13.4,1.1,13.4c0.2,0.5,0.4,0.9,0.6,1.3
			l0.2,0.4c2.4,5,6.5,8.5,11.3,9.6c0.6,0.1,1.1,0.2,1.7,0.3c0.6,0.1,1.1,0.1,1.7,0.1c1.1,0,2.2-0.1,3.3-0.4c0.1,0,0.2,0,0.3,0
			c0.6-0.1,1.1-0.2,1.6-0.3c2.9-0.5,5.5-1.6,7.7-3.2c4.4-3.3,8.2-10,6.8-15.5c-0.3-1.1-1-2.9-2.9-5.1c-0.7-0.8-1.7-1.9-3.2-2.8
			c-0.3-0.2-0.5-0.3-0.8-0.4c-0.1,0-0.1,0-0.2-0.1c-0.2-0.1-0.4-0.1-0.7-0.2c-0.5-0.1-0.7-0.2-0.8-0.2c-0.4-0.1-0.9-0.1-1.3-0.1
			c-0.7,0-1.4,0.1-1.8,0.1c-0.5,0.1-0.6,0.1-0.8,0.2c-0.1,0-0.2,0.1-0.2,0.1c-0.3,0.1-0.7,0.1-0.9,0.1c-0.2,0-0.4,0.1-0.7,0.4
			c0,0.1,0.6,1.5,0.6,1.6c0,0,0.1,0.3,0.3,0.7c0.1,0.3,0.2,0.5,0.2,0.5c0.1,0.2,0.1,0.3,0.4,0.7c0.1,0.1,0.2,0.3,0.2,0.4
			c0.3,0.5,0.5,1.1,0.8,1.7c0.1,0.3,0.3,0.6,0.4,1C41,33,41,36,37.7,39c-0.2,0.1-0.4,0.3-0.6,0.4c-0.4,0.2-0.9,0.4-1.4,0.6
			c-0.2,0-0.3,0.1-0.4,0.1c-0.8,0.3-1.6,0.4-2.5,0.4c-0.8,0-1.7-0.1-2.6-0.4c-0.2,0-0.3-0.1-0.5-0.1c-0.9-0.3-1.8-0.6-2.5-1.2
			c-0.1-0.1-0.3-0.1-0.4-0.2c-0.8-0.5-1.6-1.2-2.2-2c-0.2-0.2-0.3-0.4-0.5-0.5c-0.5-0.6-0.9-1.2-1.2-1.8c-0.1-0.1-0.1-0.3-0.2-0.5
			c-0.6-1.4-0.9-2.9-0.8-4.5c0-0.5,0.1-1.1,0.3-1.6c0.1-0.3,0.2-0.7,0.3-1c0.1-0.3,0.3-0.6,0.4-0.9c0-0.1,0.1-0.1,0.1-0.2
			c0.7-1.2,1.9-2.9,3.8-3.7c0.1,0,0.2-0.1,0.3-0.1c0.3-0.1,0.6-0.2,0.9-0.3c0.1,0,0.2-0.1,0.2-0.1c0.8-0.3,1.8-0.6,2-1
			c0.1-0.4-0.7-2.2-1.6-4.1c-0.1-0.3-0.5-1-0.8-1.9c-0.1-0.4-0.4-1.1-0.5-1.8c-0.1-0.7-0.1-1.4,0.1-2c0.2-0.7,0.5-1.3,1-1.8
			C29.5,7.1,31.7,6.2,33.9,6.2 M32.7,36.1c0.1,0,0.2,0,0.3,0c0.6,0,2.7-1.3,2.8-1.6c0.1-0.4,0.1-0.8,0.1-0.8c0,0,0-0.2-0.1-0.4
			c0-0.1-0.1-0.2-0.1-0.4c-0.1-0.2-0.1-0.3-0.2-0.4c-0.1-0.2-0.2-0.3-0.3-0.6c-0.1-0.2-0.1-0.3-0.1-0.4c-0.3-0.8-0.6-1.6-1-2.3
			c-0.3-0.6-0.6-1.2-0.9-1.7l-0.1-0.1c-0.1-0.2-0.2-0.4-0.3-0.6c-0.1-0.3-0.3-0.7-0.4-1c-0.1-0.3-0.2-0.5-0.3-0.8
			c0-0.1-0.1-0.1-0.1-0.2c0,0,0-0.1-0.1-0.1c-0.1,0-0.1,0-0.2,0c-0.1,0-0.1,0-0.2,0c-0.1,0-0.2,0.1-0.3,0.1
			c-0.1,0.1-0.2,0.1-0.4,0.2c-0.1,0-0.2,0.1-0.2,0.1c-0.2,0-0.3,0.1-0.3,0.1c-0.2,0-0.8,0.4-2.6,1.6c0,0,0,0.1,0,0.1L27.7,27
			c-0.2,0.2-0.4,0.4-0.5,0.7c-0.1,0.2-0.3,0.5-0.4,0.8c0,0.1,0,0.1-0.1,0.2c-0.1,0.3-0.1,0.6-0.1,0.8c-0.1,2.2,1.2,4.7,3.1,6
			c0.1,0.1,0.2,0.1,0.2,0.1c0.2,0.1,0.5,0.2,0.7,0.2c0.3,0.1,0.5,0.1,0.8,0.1c0.1,0,0.2,0,0.3,0c0.1,0,0.2,0,0.4,0.1
			C32.4,36.1,32.5,36.1,32.7,36.1 M33.9,4.2l0,2L33.9,4.2c-2.8,0-5.6,1.2-7.2,3.1C26,8.1,25.5,9,25.2,10c-0.1,0.4-0.1,0.8-0.2,1.1
			c-0.4-0.7-0.9-1.2-1.6-1.6c-0.8-0.4-1.6-0.7-2.6-0.7c-0.1,0-0.2,0-0.4,0c-0.2,0-0.3,0-0.5,0C18.3,9,17,9.9,16,10.5
			c-0.4,0.3-0.7,0.5-1.1,0.7c-0.1,0-0.2,0.1-0.2,0.2l-0.3,0.2c-1.5,1.2-3,2.6-4.1,4c-0.4,0.6-0.8,1.1-1.2,1.8
			C8.6,17.9,8.3,18.5,8,19c-0.1,0.1-0.1,0.3-0.2,0.4c-0.4,1.1-0.8,2.3-1.1,3.5c-0.2,0.6-0.3,1.2-0.4,1.8C5.1,30.6,5.7,36.7,7.8,42
			c0.2,0.6,0.5,1.2,0.8,1.7c3,7.1,9.4,12.4,17.2,14.2c0.7,0.2,1.3,0.3,2,0.4c1,0.1,1.9,0.2,2.9,0.2c1.1,0,2.3-0.1,3.4-0.3
			c0.6,0,1.1-0.1,1.6-0.2c0.8-0.1,1.5-0.2,2.2-0.3c3.2-0.7,13.8-3.6,18.2-14.1c0.2-0.5,5.3-12.9-2.2-21.7c-2-2.4-4.6-4.1-7.8-5.3
			c-0.2-0.1-0.4-0.1-0.6-0.2c-0.1,0-0.2-0.1-0.3-0.1c-0.4-0.1-0.8-0.2-1.1-0.3c-0.1,0-0.1,0-0.2,0l-1.2-0.2c0,0-0.1,0-0.1,0l-0.6,0
			l-0.9-0.1c0,0-0.1,0-0.1,0c-0.1,0-0.2,0-0.2,0c-0.7,0.1-1.2,0.1-1.7,0.2c-0.8,0.1-1.5,0.2-1.6,0.2c-0.2,0-0.5,0.1-0.7,0.1
			c0,0-0.1,0-0.1,0c-0.4,0.1-0.7,0.2-1.1,0.3c-0.1-0.2-0.1-0.3-0.2-0.5c0-0.1-0.1-0.2-0.1-0.3c-0.2-0.5-0.4-0.9-0.6-1.4
			c-0.1-0.2-0.1-0.4-0.2-0.6c0.5,0.2,1.1,0.3,1.7,0.3c1.3,0,2.5-0.6,3.2-1.7c0,0,0,0,0-0.1c0.1-0.2,0.2-0.4,0.3-0.7
			c1.1-2.4,0.2-5-2.1-6.6c-0.1,0-0.1-0.1-0.2-0.1c-0.3-0.2-0.7-0.3-1.1-0.4C35.7,4.3,34.8,4.2,33.9,4.2L33.9,4.2z M31.1,48.9
			c-0.5,0-0.9,0-1.4-0.1c-0.5-0.1-0.9-0.1-1.4-0.3c0,0,0,0-0.1,0c-4.2-0.9-7.8-4-10-8.5l-0.2-0.4c-0.2-0.4-0.4-0.7-0.5-1.2
			c0,0-2.3-5.9-1-12.2c0-0.2,0.1-0.3,0.1-0.6c0.1-0.5,0.3-1.1,0.5-1.9c0-0.1,0.1-0.3,0.1-0.4c0.1-0.2,0.2-0.5,0.4-0.7
			c0.1-0.1,0.1-0.2,0.2-0.3c0.1-0.2,0.1-0.3,0.2-0.5c0.1-0.1,0.6-0.9,0.8-1.2c0.1-0.2,0.3-0.3,0.4-0.6c0,0,0.1-0.1,0.1-0.1
			c1-1.4,2.6-2.6,4.5-3.4l0.2-0.1c0.5-0.2,0.9-0.6,1.1-1.1l0.1-0.2c0.1-0.2,0.2-0.4,0.2-0.6c0-0.1,0-0.2,0.1-0.2
			c0.1,0.2,0.1,0.5,0.2,0.6c0.3,1,0.7,1.8,0.9,2.1c0.3,0.7,0.7,1.5,1,2.2c-0.1,0-0.2,0.1-0.2,0.1c-0.1,0-0.2,0.1-0.4,0.1
			c-0.3,0.1-0.5,0.2-0.8,0.3c-0.2,0.1-0.3,0.1-0.5,0.2c-2.3,1.1-3.7,3.1-4.6,4.5c-0.1,0.1-0.1,0.2-0.2,0.3c-0.2,0.3-0.3,0.7-0.5,1.1
			c-0.2,0.4-0.3,0.8-0.4,1.2c-0.2,0.6-0.3,1.3-0.3,1.9c-0.1,2,0.2,3.8,1,5.5c0.1,0.2,0.2,0.4,0.3,0.6c0.4,0.8,0.9,1.5,1.5,2.2
			c0.1,0.2,0.3,0.3,0.5,0.5c0.8,1,1.7,1.8,2.7,2.4c0.2,0.1,0.3,0.2,0.5,0.3c0.9,0.6,2,1.1,3.1,1.4c0.2,0.1,0.4,0.1,0.6,0.1
			c1.1,0.3,2.1,0.4,3,0.4c1.1,0,2.2-0.2,3.1-0.5c0.1,0,0.3-0.1,0.4-0.1c0.6-0.2,1.2-0.4,1.7-0.7c0.3-0.1,0.5-0.3,0.8-0.5
			c0.1-0.1,0.2-0.1,0.3-0.2c3.6-3.2,4.4-7.1,2.2-11.2c-0.1-0.3-0.3-0.6-0.4-1c-0.3-0.6-0.5-1.1-0.8-1.7L40,26.5
			c-0.1-0.2-0.2-0.4-0.3-0.5c-0.2-0.4-0.3-0.5-0.3-0.7c0,0-0.1-0.2-0.2-0.5c0-0.1-0.1-0.2-0.1-0.3c0.1,0,0.1,0,0.3,0
			c0.3,0,1-0.1,1.5-0.1c0.6,0,0.8,0.1,0.9,0.1c0.1,0,0.3,0.1,0.7,0.2c0.2,0.1,0.4,0.1,0.6,0.2c0.2,0.1,0.4,0.2,0.6,0.3
			c1.2,0.7,2.1,1.7,2.7,2.4c1.7,1.8,2.3,3.3,2.5,4.2c1.2,4.7-2.2,10.6-6,13.4c-1.9,1.4-4.3,2.4-6.8,2.9c-0.6,0.1-1.1,0.2-1.6,0.2
			c-0.2,0-0.3,0.1-0.5,0.1C33.1,48.7,32.1,48.9,31.1,48.9L31.1,48.9z M29.3,28.3c0.8-0.5,1.3-0.9,1.5-1c0,0.1,0.1,0.3,0.1,0.4
			c0.1,0.4,0.3,0.7,0.5,0.9l0,0.1c0.3,0.5,0.5,1,0.8,1.5c0.3,0.7,0.6,1.4,0.9,2.1c0,0.1,0.1,0.3,0.2,0.5c0.1,0.3,0.2,0.6,0.3,0.7
			c0,0,0,0.1,0,0.1c-0.4,0.2-0.8,0.5-1.1,0.6c-0.1,0-0.2,0-0.3,0c-0.1,0-0.1,0-0.2,0c-0.2,0-0.4-0.1-0.6-0.1c-0.2,0-0.3,0-0.5-0.1
			c-0.1,0-0.2-0.1-0.3-0.1c-1.3-0.9-2.3-2.8-2.2-4.2c0-0.2,0-0.3,0.1-0.4c0.1-0.2,0.2-0.4,0.2-0.5c0.1-0.1,0.1-0.2,0.1-0.2
			C29.1,28.4,29.2,28.4,29.3,28.3L29.3,28.3L29.3,28.3z"/>
	</g>
</g>
<g id="XMLID_4_">
	<g id="XMLID_10_">
		<path id="XMLID_18_" fill="#366994" d="M42.6,55.9c-1.5,0-2.5-1-3-2.7c-0.4-1.7-0.4-2.8,0-4.6C40,47,41.3,46,43,46h0.8v-1.4
			c0-1.7,0.8-2.6,2.7-2.9c0.7-0.1,1.4-0.2,2.2-0.2c0.8,0,1.5,0.1,2.2,0.2c1.6,0.3,2.7,1.5,2.7,2.9v4c0,1.6-1.3,2.9-2.8,2.9h-4.2
			c-1,0-1.9,0.9-1.9,1.8v2.6H42.6z"/>
		<path id="XMLID_14_" fill="#004C75" d="M48.7,42.3c0.7,0,1.4,0.1,2.1,0.2c1.1,0.2,2.1,1,2.1,2.2v4c0,1.2-0.9,2.1-2.1,2.1h-4.2
			c-1.4,0-2.6,1.2-2.6,2.6v1.9h-1.4c-1.2,0-1.9-0.9-2.2-2.1c-0.4-1.7-0.4-2.6,0-4.2c0.3-1.4,1.4-2.1,2.6-2.1h1.6h4.2v-0.5h-4.2v-1.6
			c0-1.2,0.3-1.9,2.1-2.2C47.3,42.3,48,42.3,48.7,42.3 M48.7,40.8L48.7,40.8c-0.8,0-1.6,0.1-2.3,0.2c-2.3,0.4-3.3,1.5-3.3,3.6v0.6
			H43c-2,0-3.6,1.3-4.1,3.3c-0.4,1.8-0.4,3.1,0,4.9c0.5,2,1.9,3.3,3.7,3.3H44h1.5v-1.5v-1.9c0-0.6,0.5-1.1,1.1-1.1h4.2
			c2,0,3.6-1.6,3.6-3.6v-4c0-1.8-1.4-3.3-3.4-3.6C50.3,40.8,49.5,40.8,48.7,40.8L48.7,40.8z"/>
	</g>
	<g id="XMLID_9_">
		<path id="XMLID_13_" fill="#E7B530" d="M48.7,60.4c-0.7,0-1.5-0.1-2.3-0.3c-1.7-0.5-2.6-1.5-2.6-2.8v-4c0-1.6,1.3-2.9,2.8-2.9h4.2
			c1,0,1.9-0.9,1.9-1.9V46H55c1.4,0,2.4,0.9,2.8,2.7c0.5,1.8,0.5,3.2,0,4.6c-0.3,1-0.9,2.6-2.8,2.6h-1.3v1.4c0,0.8-0.3,2.2-2.6,2.8
			C50.2,60.3,49.5,60.4,48.7,60.4z"/>
		<path id="XMLID_7_" fill="#004C75" d="M55,46.7c1.2,0,1.8,0.9,2.1,2.1c0.4,1.7,0.4,2.9,0,4.2c-0.4,1.3-0.9,2.1-2.1,2.1h-2.1h-4.2
			v0.5h4.2v1.6h0c0,1.2-1,1.8-2.1,2.1c-0.8,0.2-1.5,0.3-2.1,0.3c-0.7,0-1.4-0.1-2.1-0.3c-1.1-0.3-2.1-1-2.1-2.1v-4
			c0-1.1,0.9-2.1,2.1-2.1h4.2c1.4,0,2.6-1.2,2.6-2.6v-1.8H55 M55,45.2h-1.6H52v1.5v1.8c0,0.6-0.5,1.1-1.1,1.1h-4.2
			c-2,0-3.6,1.6-3.6,3.6v4c0,1.7,1.2,3,3.2,3.6c0.9,0.3,1.7,0.4,2.5,0.4c0.8,0,1.6-0.1,2.5-0.4c2.9-0.8,3.2-2.8,3.2-3.6l0-0.6H55
			c2.5,0,3.2-2.1,3.5-3.1c0.5-1.6,0.5-3.1,0-5.1C57.9,45.6,56.1,45.2,55,45.2L55,45.2z"/>
	</g>
</g>
<g id="XMLID_1_">
</g>
<g id="XMLID_17_">
</g>
<g id="XMLID_21_">
</g>
<g id="XMLID_22_">
</g>
<g id="XMLID_74_">
</g>
<g id="XMLID_82_">
</g>
<g id="XMLID_84_">
</g>
<g id="XMLID_85_">
</g>
<g id="XMLID_86_">
</g>
<g id="XMLID_87_">
</g>
<g id="XMLID_88_">
</g>
<g id="XMLID_89_">
</g>
<g id="XMLID_90_">
</g>
<g id="XMLID_91_">
</g>
<g id="XMLID_92_">
</g>
</svg>
