<?xml version="1.0" encoding="utf-8"?>
<!-- Generator: Adobe Illustrator 19.0.0, SVG Export Plug-In . SVG Version: 6.00 Build 0)  -->
<svg version="1.1" id="图层_2" xmlns="http://www.w3.org/2000/svg" xmlns:xlink="http://www.w3.org/1999/xlink" x="0px" y="0px"
	 viewBox="0 0 64 64" style="enable-background:new 0 0 64 64;" xml:space="preserve">
<style type="text/css">
	.st0{fill:none;}
	.st1{fill:#FF0000;stroke:#B22C00;stroke-width:1.25;stroke-miterlimit:10;}
	.st2{fill:#366994;}
	.st3{fill:#E7B530;}
	.st4{fill:#FFFFFF;}
</style>
<g id="XMLID_3_">
	<path id="XMLID_5_" class="st0" d="M27.8,26.9L27.7,27c-0.2,0.2-0.4,0.4-0.5,0.7c-0.1,0.2-0.3,0.5-0.4,0.8c0,0.1,0,0.1-0.1,0.2
		c-0.1,0.3-0.1,0.6-0.1,0.8c-0.1,2.2,1.2,4.7,3.1,6c0.1,0.1,0.2,0.1,0.2,0.1c0.2,0.1,0.5,0.2,0.7,0.2c0.3,0.1,0.5,0.1,0.8,0.1
		c0.1,0,0.2,0,0.3,0c0.1,0,0.2,0,0.4,0.1c0.2,0,0.5,0,0.8,0c1.1,0,2.2-0.5,2.7-1.2c0-0.1,0.1-0.1,0.1-0.2c0-0.1,0-0.2,0.1-0.2
		c0-0.1,0.1-0.3,0.1-0.4c0-0.3-0.1-0.5-0.2-0.8c0-0.1-0.1-0.2-0.1-0.4c-0.1-0.2-0.1-0.3-0.2-0.4c-0.1-0.2-0.2-0.3-0.3-0.6
		c-0.1-0.2-0.1-0.3-0.1-0.4c-0.3-0.8-0.6-1.6-1-2.3c-0.3-0.6-0.6-1.2-0.9-1.7l-0.1-0.1c-0.1-0.2-0.2-0.4-0.3-0.6
		c-0.1-0.3-0.3-0.7-0.4-1c-0.1-0.3-0.2-0.5-0.3-0.8c0-0.1-0.1-0.1-0.1-0.2c0,0,0-0.1-0.1-0.1c-0.1,0-0.1,0-0.2,0c-0.1,0-0.1,0-0.2,0
		c-0.1,0-0.2,0.1-0.3,0.1c-0.1,0.1-0.2,0.1-0.4,0.2c-0.2,0.1-0.4,0.1-0.5,0.1c-0.1,0-0.1,0-0.2,0.1C29.4,25.5,28.6,26.1,27.8,26.9
		C27.8,26.8,27.8,26.9,27.8,26.9z"/>
	<path id="XMLID_83_" class="st1" d="M52.4,23.3c-1.8-2.1-4.1-3.7-6.9-4.7c-0.2-0.1-0.3-0.1-0.5-0.2c-0.1,0-0.1,0-0.2-0.1
		c-0.6-0.1-1.2-0.2-1.9-0.3l-0.1,0.5l0,0l0-0.5c-1.1-0.2-2.2-0.1-3.2,0.1c-0.7,0.1-1.4,0.2-2.3,0.3c-0.6,0.1-1.2,0.3-1.8,0.5
		c-0.2,0.1-0.5,0.1-0.7,0.2c0-0.1-0.1-0.1-0.1-0.2c-0.4-0.7-0.7-1.4-1-2.2c-0.3-0.6-0.5-1.1-0.6-1.5c-0.1-0.4-0.3-0.9-0.5-1.5
		c-0.1-0.3-0.1-0.5-0.2-0.7c0-0.1-0.1-0.2-0.1-0.3c-0.1-0.5,0-0.7,0.5-0.9c0.1,0,0.2-0.1,0.2-0.1c0.3-0.1,0.6-0.2,0.8-0.1
		c0.1,0,0.2,0,0.2,0l0.3,0.1c0.9,0.4,2.5,1.2,3.5-0.3c0.1-0.1,0.2-0.3,0.2-0.4c0.7-1.5,0.1-3.1-1.4-4.1c-0.3-0.1-0.5-0.2-0.8-0.3
		c-2.6-0.9-6.1,0.1-7.8,2.1c-0.5,0.6-0.8,1.2-1,1.8c-0.1,0.6-0.2,1.3-0.1,2c0.1,0.7,0.3,1.4,0.5,1.8c0.3,0.9,0.6,1.6,0.8,1.9
		c0.9,1.9,1.7,3.7,1.6,4.1c-0.2,0.3-1.2,0.7-2,1c0,0-0.1,0-0.2,0.1c-0.3,0.1-0.6,0.2-0.9,0.3c-0.1,0-0.2,0.1-0.3,0.1
		c-1.8,0.9-3,2.6-3.8,3.7c0,0.1-0.1,0.1-0.1,0.2c-0.2,0.3-0.3,0.6-0.4,0.9c-0.1,0.3-0.2,0.7-0.3,1c-0.1,0.5-0.2,1.1-0.3,1.6
		c-0.1,1.6,0.2,3.1,0.8,4.5c0.1,0.2,0.2,0.4,0.2,0.5c0.3,0.7,0.7,1.3,1.2,1.8c0.1,0.2,0.3,0.3,0.5,0.5c0.7,0.8,1.4,1.5,2.2,2
		c0.1,0.1,0.3,0.2,0.4,0.2c0.8,0.5,1.6,0.9,2.5,1.2c0.2,0,0.4,0.1,0.5,0.1c1.9,0.5,3.6,0.5,5.1-0.1c0.1,0,0.3-0.1,0.4-0.1
		c0.5-0.1,0.9-0.3,1.4-0.6c0.2-0.1,0.4-0.2,0.6-0.4c3.3-3,3.3-6,1.7-8.9c-0.1-0.3-0.3-0.7-0.4-1c-0.3-0.6-0.6-1.2-0.8-1.7
		c-0.1-0.2-0.2-0.3-0.2-0.4c-0.2-0.4-0.4-0.8-0.8-1.5c-0.2-0.5-0.3-0.7-0.4-0.9c-0.1-0.2-0.1-0.3-0.2-0.6c-0.1-0.1-0.1-0.3-0.2-0.4
		c-0.1-0.1-0.1-0.3-0.2-0.3c0.1,0,0.4-0.1,0.6-0.1c0.9-0.2,1.2-0.3,1.5-0.4c0.2-0.1,0.3-0.1,0.8-0.2c0.7-0.1,2.3-0.2,3.1,0
		c0.1,0,0.3,0.1,0.8,0.2c0.2,0.1,0.4,0.1,0.7,0.2c0.1,0,0.1,0,0.2,0.1c0.3,0.1,0.6,0.3,0.8,0.4c1.5,0.9,2.5,2,3.2,2.8
		c1.9,2.1,2.7,3.9,2.9,5.1c1.4,5.6-2.3,12.2-6.8,15.5c-2.1,1.6-4.8,2.7-7.7,3.2c-0.5,0.1-1.1,0.2-1.6,0.3c-0.1,0-0.2,0-0.3,0
		c-1.6,0.4-3.3,0.5-5,0.3c-0.5-0.1-1.1-0.2-1.7-0.3c-4.8-1-8.9-4.5-11.3-9.6l-0.2-0.4c-0.2-0.4-0.4-0.8-0.6-1.3
		c0-0.1-2.6-6.4-1.1-13.4c0-0.2,0.1-0.4,0.2-0.7c0.1-0.5,0.3-1,0.4-1.8c0-0.1,0.1-0.4,0.2-0.7c0.1-0.4,0.3-0.7,0.6-1.2
		c0.1-0.2,0.2-0.5,0.4-0.7c0.1-0.2,0.7-1.1,0.9-1.3c0.1-0.2,0.3-0.4,0.5-0.6c1.2-1.7,3.1-3.1,5.3-4.1l0.2-0.1l0.1-0.2
		c0.1-0.2,0.1-0.3,0.2-0.5c0.3-1-0.1-2.1-1.1-2.7c-0.5-0.3-1.1-0.4-1.8-0.4c-0.1,0-0.3,0-0.4,0c-1.3,0.1-2.3,0.7-3.3,1.4
		c-0.4,0.3-0.8,0.5-1.3,0.8l-0.3,0.2c-1.4,1.1-2.7,2.3-3.7,3.6c-0.4,0.5-0.8,1-1.1,1.6c-0.3,0.5-0.6,1-0.8,1.5
		c0,0.1-0.1,0.1-0.1,0.2c-0.4,1.1-0.8,2.2-1,3.3c-0.1,0.6-0.3,1.2-0.4,1.7c-1.2,5.4-0.7,11.1,1.3,16.1c0.2,0.6,0.5,1.1,0.7,1.6
		c2.7,6.6,8.7,11.5,15.9,13.1c0.6,0.2,1.2,0.3,1.8,0.4c0.9,0.1,1.7,0.2,2.6,0.2c1,0,2-0.1,3-0.3c0,0,0.1,0,0.1,0
		c0.6,0,1.1-0.1,1.6-0.1c0.7-0.1,1.4-0.2,2-0.3c2.9-0.6,12.8-3.3,16.8-12.9C54.5,42.4,59.1,31.2,52.4,23.3z M30.4,25.2
		c0,0,0.1,0,0.3-0.1c0.1,0,0.1,0,0.2-0.1c0.2-0.1,0.3-0.1,0.4-0.2c0.1-0.1,0.2-0.1,0.3-0.1c0.1,0,0.1,0,0.2,0c0.1,0,0.1,0,0.2,0
		c0,0,0,0.1,0.1,0.1c0,0.1,0.1,0.1,0.1,0.2c0.1,0.2,0.2,0.5,0.3,0.8c0.1,0.3,0.2,0.6,0.4,1c0.1,0.2,0.2,0.4,0.3,0.6l0.1,0.1
		c0.3,0.5,0.6,1.1,0.9,1.7c0.4,0.8,0.7,1.6,1,2.3c0,0.1,0.1,0.2,0.1,0.4c0.1,0.2,0.2,0.4,0.3,0.6c0.1,0.1,0.1,0.2,0.2,0.4
		c0.1,0.2,0.1,0.3,0.1,0.4c0.1,0.3,0.2,0.5,0.2,0.8c-0.1-0.3-0.1-0.4-0.1-0.4c0,0,0,0.4-0.1,0.8c-0.1,0.3-0.2,0.5-0.4,0.6
		c-0.3,0.2-0.6,0.3-0.8,0.4c-0.6,0.3-1.1,0.5-1.6,0.6c-0.1,0-0.4,0-0.8,0c-0.1,0-0.2,0-0.4-0.1c-0.1,0-0.2,0-0.3,0
		c-0.3,0-0.5,0-0.8-0.1c-0.2-0.1-0.5-0.1-0.7-0.2c-0.1,0-0.2-0.1-0.2-0.1c-2-1.3-3.3-3.9-3.1-6c0-0.3,0.1-0.6,0.1-0.8
		c0-0.1,0-0.1,0.1-0.2c0.1-0.3,0.3-0.6,0.4-0.8c0.2-0.3,0.3-0.5,0.5-0.7l0.1-0.1c0,0,0-0.1,0-0.1C29.6,25.6,30.2,25.2,30.4,25.2z"/>
</g>
<g id="XMLID_4_">
	<path id="XMLID_10_" class="st2" d="M44.6,44.6c0-1.2,0.3-1.9,2.1-2.2c1.2-0.2,2.8-0.2,4.2,0c1.1,0.2,2.1,1,2.1,2.2v4
		c0,1.2-0.9,2.1-2.1,2.1h-4.2c-1.4,0-2.6,1.2-2.6,2.6v1.9h-1.4c-1.2,0-1.9-0.9-2.2-2.1c-0.4-1.7-0.4-2.6,0-4.2
		c0.3-1.4,1.4-2.1,2.6-2.1h1.6h4.2v-0.5h-4.2V44.6L44.6,44.6z"/>
	<path id="XMLID_9_" class="st3" d="M52.9,57.3c0,1.2-1,1.8-2.1,2.1c-1.6,0.5-2.9,0.4-4.2,0c-1.1-0.3-2.1-1-2.1-2.1v-4
		c0-1.1,0.9-2.1,2.1-2.1h4.2c1.4,0,2.6-1.2,2.6-2.6v-1.8H55c1.2,0,1.8,0.9,2.1,2.1c0.4,1.7,0.4,2.9,0,4.2c-0.4,1.3-0.9,2.1-2.1,2.1
		h-2.1h-4.2v0.5h4.2L52.9,57.3L52.9,57.3z"/>
	<path id="XMLID_7_" class="st4" d="M58.9,18.9c0-0.4,0.4-0.8,0.8-0.8c0.4,0,0.8,0.4,0.8,0.8c0,0.4-0.4,0.8-0.8,0.8
		C59.2,19.7,58.9,19.3,58.9,18.9z"/>
</g>
<g id="XMLID_74_">
</g>
<g id="XMLID_75_">
</g>
<g id="XMLID_76_">
</g>
<g id="XMLID_77_">
</g>
<g id="XMLID_78_">
</g>
<g id="XMLID_79_">
</g>
<g id="XMLID_80_">
</g>
<g id="XMLID_81_">
</g>
<g id="XMLID_82_">
</g>
<g id="XMLID_84_">
</g>
<g id="XMLID_85_">
</g>
<g id="XMLID_86_">
</g>
<g id="XMLID_87_">
</g>
<g id="XMLID_88_">
</g>
<g id="XMLID_89_">
</g>
</svg>
